<svg viewBox="0 0 1417 1417">

  <defs>
    <style>
      .cls-1 {
        fill: #ed3535;
        fill-rule: evenodd;
      }
    </style>
  </defs>
  <path id="Color_Fill_1" data-name="Color Fill 1" class="cls-1" d="M1321,832c-3.03,47.607-45,104.752-85,115l-67,1c-15.49,4.4-20.55,23.605-38,11V948l-321-1c-49.045-4.182-114.741-6.143-162,1-46.375,7.009-101.065-6.873-145,3l-36,1,12,1-142,4c-7.412,3.3-10.189,13.159-18,16-21.9,7.968-35.86-6.284-44-13-84.941.827-89.089-14.264-110-77-4.922-14.765-16.307-31.425-13-50,46.677,4.991,36.519-39.284,47-74l21-32c6.827-11.556,13.384-35.846,16-49,1.357-6.821-.023-58.062-2-71q1-51.995,2-104c-2.265-14.987-3.856-36.944,0-51l12,2c1.561,22.536,122.957,33.235,141,20l2,6c29.228-.081,46.344,10.349,74,8,24.754-2.1,51.544-.063,77,0,22.027,0.055,49.3-1.878,68,2,11.865,2.46,31.227.012,40-2,17.511-4.017,49.288,4.862,62,8,15.466,3.818,44.2.335,57-2l31,2c34.825,0.01,74.455.8,106-2,17.375-1.54,61.014.062,80,3l158-1c5.02-7.074,17.45-20.19,28-18q-0.495,23-1,46c6.3,40.457,3.04,84.317,12,124,4.4,19.476-2.07,38.319,4,54q22.005,23,44,46C1249.97,787.1,1264.06,830.753,1321,832Z"/>
</svg>
